<?xml version="1.0" standalone="no"?><!DOCTYPE svg PUBLIC "-//W3C//DTD SVG 1.1//EN" "http://www.w3.org/Graphics/SVG/1.1/DTD/svg11.dtd"><svg t="1713080725897" class="icon" viewBox="0 0 1024 1024" version="1.1" xmlns="http://www.w3.org/2000/svg" p-id="2836" xmlns:xlink="http://www.w3.org/1999/xlink" width="200" height="200"><path d="M810.96061 405.334047v-39.874222a841.105239 841.105239 0 0 1 107.767445 0.990165 76.563859 76.563859 0 0 1 61.550812 78.276577c0.856359 53.736536 0.321135 107.499833 0.374658 161.26313v127.945407a150.371312 150.371312 0 0 1-100.086974 137.178029c-1.685957 0.535224-3.345153 1.177494-6.315649 2.247943v89.997993c0 12.443969 0.294373 24.887937 0 37.305145a21.970964 21.970964 0 0 1-22.372382 23.175219c-3.077541 0.267612-6.208604 0-9.312906 0H416.045242c-26.011909 0-32.354319-6.288887-32.354319-32.113468v-150.612163c0-5.780424 0-11.58761-0.401418-17.314511-2.354988-27.430254-10.303071-34.78959-37.465712-34.78959H236.530958a83.200642 83.200642 0 0 1-87.509199-86.545795c-0.267612-18.732856-0.695792-37.465712 0.187329-55.957717a16.565197 16.565197 0 0 0-12.336924-19.134275 209.246003 209.246003 0 0 0-35.913561-8.429785A63.852278 63.852278 0 0 1 44.198049 570.263464a44.63772 44.63772 0 0 1 4.736736-33.210677q48.170201-85.957048 95.029103-172.63665a47.581454 47.581454 0 0 0 4.736736-22.800562 333.685689 333.685689 0 0 1 37.867131-170.843648A315.782431 315.782431 0 0 1 388.320615 10.953904a357.422894 357.422894 0 0 1 101.157423-10.704489v40.944671c-22.800562 2.007092-45.494079 2.221182-67.545327 6.262126a273.820834 273.820834 0 0 0-229.343681 272.456011 174.884592 174.884592 0 0 1-25.556968 92.647354c-26.520372 44.610959-50.578711 90.80083-75.573694 136.294909-8.884726 16.056734-3.853616 25.369639 15.146853 27.216164a133.217368 133.217368 0 0 1 71.13133 26.975312 33.719141 33.719141 0 0 1 14.183448 29.651435c-0.481702 23.549876-0.267612 47.099752 0 70.649629a40.275641 40.275641 0 0 0 43.139092 43.433465c37.305145 0.21409 74.744096 1.819763 111.942196-0.347896 54.619656-3.184586 77.607547 35.431859 79.079414 78.142771 1.498628 46.591289 0.454941 93.289623 0.508463 139.934435v15.628555h404.38884c0.187329-4.014183 0.561986-8.670636 0.561986-13.380612v-106.616712c0-19.749783 6.048036-26.440088 25.556968-28.286613a72.255302 72.255302 0 0 0 53.067505-29.437345 126.794675 126.794675 0 0 0 28.366897-79.694922c-0.802837-89.730381-0.267612-179.487523-0.294374-269.217904a41.934836 41.934836 0 0 0-47.956111-48.170201H810.96061" p-id="2837"></path><path d="M532.884742 191.244263V128.970897h42.122165v62.246605h43.032046V129.184987h42.630628v62.005754h42.550345V129.184987h43.032046v62.915635a80.283669 80.283669 0 0 1 68.589015 21.408979 64.226935 64.226935 0 0 1 16.40463 42.01512h-41.801031c-3.345153-16.886332-15.441226-20.606142-31.444437-20.525858-79.507593 0.401418-158.988426 0.160567-238.469258 0.214089-18.946946 0-22.880846 2.676122-30.133137 20.606142h-40.623536c-0.481702-40.141834 24.379474-59.30287 84.110524-64.360741" p-id="2838"></path><path d="M789.444586 512.485984h41.56018a53.950626 53.950626 0 0 1-26.386566 50.55195 334.006824 334.006824 0 0 1-58.178899 18.277915v57.616913h-42.817957v-61.764902h-42.443299v62.13956h-42.175688v-62.112799h-43.032046v62.13956h-42.577106v-62.969158a75.546932 75.546932 0 0 1-70.836957-24.325952 242.45668 242.45668 0 0 1-18.438483-39.419281h45.494079c3.50572 18.492005 17.153944 20.927276 33.745902 20.820231q117.240918-0.669031 234.481836 0c16.056734 0 28.206329-3.452198 31.551482-20.954037" p-id="2839"></path><path d="M660.214641 468.677862h-41.479896v-40.677059h-42.550345v40.650298h-41.319328c-0.588747-1.150733-1.659196-2.274704-1.659196-3.425437 0-42.603867-0.722553-85.207734 0-127.78484a39.954506 39.954506 0 0 1 39.098147-38.134743 539.586539 539.586539 0 0 1 49.24065 0 38.161504 38.161504 0 0 1 38.107982 34.388172c1.391584 44.63772 0.454941 89.355724 0.454941 135.063892m-42.550345-126.393256h-40.971432v41.212284h40.971432z" p-id="2840"></path><path d="M704.638271 299.332843h40.623536v169.15769h-40.623536z" p-id="2841"></path><path d="M384.734611 278.298521h83.468255v40.971433h-83.468255z" p-id="2842"></path><path d="M811.094416 277.923864h83.334448v41.292567h-83.334448z" p-id="2843"></path><path d="M384.788134 363.265404h82.93303v41.212284h-82.93303z" p-id="2844"></path><path d="M384.788134 448.526661h83.173881v41.560179h-83.173881z" p-id="2845"></path><path d="M811.281744 449.195691h83.602061v40.971433h-83.602061z" p-id="2846"></path><path d="M533.634056 43.870208h40.864387v40.650298h-40.864387z" p-id="2847"></path><path d="M619.403775 43.763163h40.703821V84.547267h-40.703821z" p-id="2848"></path><path d="M704.049524 43.923731h41.506657V84.279655h-41.506657z" p-id="2849"></path><path d="M299.205742 278.432328h40.516492v41.024954H299.205742z" p-id="2850"></path><path d="M939.066584 278.137954h40.784104v41.292567h-40.784104z" p-id="2851"></path><path d="M299.232504 363.693584h40.784103v40.570014H299.232504z" p-id="2852"></path><path d="M299.526877 448.874557h40.784104V489.979795H299.526877z" p-id="2853"></path><path d="M533.928429 683.51696h40.757343v40.998194h-40.757343z" p-id="2854"></path><path d="M619.430537 683.570482h40.650297v40.784104h-40.650297z" p-id="2855"></path><path d="M704.477703 683.409915h40.91791v40.730581h-40.91791z" p-id="2856"></path></svg>