<?xml version="1.0" standalone="no"?><!DOCTYPE svg PUBLIC "-//W3C//DTD SVG 1.1//EN" "http://www.w3.org/Graphics/SVG/1.1/DTD/svg11.dtd"><svg t="1713080626351" class="icon" viewBox="0 0 1024 1024" version="1.1" xmlns="http://www.w3.org/2000/svg" p-id="1660" xmlns:xlink="http://www.w3.org/1999/xlink" width="200" height="200"><path d="M928 192H96c-17.6 0-32 14.4-32 32v576c0 17.6 14.4 32 32 32h832c17.6 0 32-14.4 32-32V224c0-17.6-14.4-32-32-32z m-32 576H128V256h768v512zM320 384H192v-64h128v64z m448 192V448h64v192H640v-64h128z m-192 64H192v-64h384v64zM448 384h-64v-64h64v64z m128 0h-64v-64h64v64z m128 0h-64v-64h64v64z m128 0h-64v-64h64v64zM256 512h-64v-64h64v64z m64-64h64v64h-64v-64z m128 0h64v64h-64v-64z m128 0h64v64h-64v-64z" p-id="1661"></path></svg>